<svg xmlns="http://www.w3.org/2000/svg" width="672" height="209" viewBox="0 0 672 209">
  <metadata><?xpacket begin="﻿" id="W5M0MpCehiHzreSzNTczkc9d"?>
<x:xmpmeta xmlns:x="adobe:ns:meta/" x:xmptk="Adobe XMP Core 5.6-c142 79.160924, 2017/07/13-01:06:39        ">
   <rdf:RDF xmlns:rdf="http://www.w3.org/1999/02/22-rdf-syntax-ns#">
      <rdf:Description rdf:about=""/>
   </rdf:RDF>
</x:xmpmeta>
                                                                                                    
                                                                                                    
                                                                                                    
                                                                                                    
                                                                                                    
                                                                                                    
                                                                                                    
                                                                                                    
                                                                                                    
                                                                                                    
                                                                                                    
                                                                                                    
                                                                                                    
                                                                                                    
                                                                                                    
                                                                                                    
                                                                                                    
                                                                                                    
                                                                                                    
                                                                                                    
                           
<?xpacket end="w"?></metadata>
<defs>
    <style>
      .cls-1, .cls-2 {
        fill: #007aff;
      }

      .cls-1 {
        fill-rule: evenodd;
      }

      .cls-2 {
        font-size: 100px;
        font-family: Poppins;
        font-weight: 700;
      }
    </style>
  </defs>
  <path class="cls-1" d="M198.016,9.015V19.888a4.95,4.95,0,0,0,0,9.9v9.9a4.949,4.949,0,0,0,0,9.9v9.9a4.949,4.949,0,0,0,0,9.9v9.9a4.949,4.949,0,0,0,0,9.9v9.9a4.951,4.951,0,0,0,0,9.9v9.895a4.949,4.949,0,0,0,0,9.9v9.9a4.949,4.949,0,0,0,0,9.9v9.9a4.95,4.95,0,0,0,0,9.9v10.871a4.951,4.951,0,0,0,0,9.9v9.9h-10.7a4.867,4.867,0,1,0-9.732,0h-9.74a4.872,4.872,0,1,0-9.743,0h-9.734a4.87,4.87,0,1,0-9.739,0h-9.738a4.869,4.869,0,1,0-9.736,0h-9.743a4.868,4.868,0,1,0-9.734,0H89.935a4.87,4.87,0,1,0-9.738,0H70.465a4.871,4.871,0,1,0-9.74,0H50.984v-9.9a4.951,4.951,0,0,0,0-9.9V168.35a4.95,4.95,0,0,0,0-9.9v-9.9a4.949,4.949,0,0,0,0-9.9v-9.9a4.949,4.949,0,0,0,0-9.9v-9.895a4.95,4.95,0,0,0,0-9.9v-9.9a4.949,4.949,0,0,0,0-9.9v-9.9a4.949,4.949,0,0,0,0-9.9v-9.9a4.949,4.949,0,0,0,0-9.9v-9.9a4.95,4.95,0,0,0,0-9.9V9.015h9.741a4.871,4.871,0,1,0,9.74,0H80.2a4.87,4.87,0,1,0,9.738,0h9.743a4.868,4.868,0,1,0,9.734,0h9.743a4.869,4.869,0,1,0,9.736,0h9.738a4.87,4.87,0,1,0,9.739,0H158.1a4.872,4.872,0,1,0,9.743,0h9.74a4.867,4.867,0,1,0,9.732,0h10.7Z"/>
  <text id="Elegant_Form" data-name="Elegant  Form" class="cls-2" x="226.449" y="90">Elegant <tspan x="226.449" dy="103">Form</tspan></text>
</svg>
